<svg width="432" height="462" viewBox="0 0 432 462" fill="none" xmlns="http://www.w3.org/2000/svg">
<path fill-rule="evenodd" clip-rule="evenodd" d="M225.717 0.601562L388.152 58.4007L332.845 77.8332L225.717 40.4631V0.601562ZM431.003 244.753V71.3557L216 158.95L0.99649 71.3557V244.753L79.2247 284.116V198.414L161.937 240.767V285.611L215.751 320.665V320.988L216 320.826L216.249 320.988V320.665L270.063 285.611V240.767L352.775 198.414V284.116L431.003 244.753ZM432 286.11V347.397L228.706 461.5V415.161L352.775 350.386V329.459L432 286.11ZM206.283 0.601562L43.8476 58.4007L99.1554 77.8332L206.283 40.4631V0.601562ZM-6.10352e-05 286.11V347.397L203.294 461.5V415.161L79.2247 350.386V329.459L-6.10352e-05 286.11Z" fill="white"/>
</svg>
